{
  "accessors": [
    {
      "bufferView": 2,
      "componentType": 5126,
      "count": 65533,
      "max": [
        56.959659576416016,
        55.55509948730469,
        -59.375099182128906
      ],
      "min": [
        -56.959659576416016,
        -56.13523864746094,
        -71.64600372314453
      ],
      "type": "VEC3"
    },
    {
      "bufferView": 2,
      "byteOffset": 786396,
      "componentType": 5126,
      "count": 65533,
      "max": [
        0.9998813271522522,
        0.9996806979179382,
        0.9999972581863403
      ],
      "min": [
        -0.9998538494110107,
        -0.9999136924743652,
        -0.9978556632995605
      ],
      "type": "VEC3"
    },
    {
      "bufferView": 1,
      "componentType": 5126,
      "count": 65533,
      "max": [
        0.9953699707984924,
        0.9965500235557556
      ],
      "min": [
        0.0033100000582635403,
        0.045889999717473984
      ],
      "type": "VEC2"
    },
    {
      "bufferView": 0,
      "componentType": 5125,
      "count": 308316,
      "type": "SCALAR"
    },
    {
      "bufferView": 2,
      "byteOffset": 1572792,
      "componentType": 5126,
      "count": 65532,
      "max": [
        55.05101013183594,
        53.892059326171875,
        -69.37484741210938
      ],
      "min": [
        -55.83039855957031,
        -53.879859924316406,
        -74.13516235351563
      ],
      "type": "VEC3"
    },
    {
      "bufferView": 2,
      "byteOffset": 2359176,
      "componentType": 5126,
      "count": 65532,
      "max": [
        0.9894171953201294,
        0.9983938932418823,
        0.9998964667320251
      ],
      "min": [
        -0.9991469979286194,
        -0.9913895130157471,
        -1.0
      ],
      "type": "VEC3"
    },
    {
      "bufferView": 1,
      "byteOffset": 524264,
      "componentType": 5126,
      "count": 65532,
      "max": [
        0.9993900060653687,
        0.9901099801063538
      ],
      "min": [
        0.0034199999645352364,
        0.005919999908655882
      ],
      "type": "VEC2"
    },
    {
      "bufferView": 0,
      "byteOffset": 1233264,
      "componentType": 5125,
      "count": 66501,
      "type": "SCALAR"
    },
    {
      "bufferView": 2,
      "byteOffset": 3145560,
      "componentType": 5126,
      "count": 65533,
      "max": [
        50.785518646240234,
        56.13523864746094,
        -66.11876678466797
      ],
      "min": [
        -56.87847137451172,
        -56.00020980834961,
        -74.13532257080078
      ],
      "type": "VEC3"
    },
    {
      "bufferView": 2,
      "byteOffset": 3931956,
      "componentType": 5126,
      "count": 65533,
      "max": [
        0.9998813271522522,
        0.9994950294494629,
        0.9999009966850281
      ],
      "min": [
        -0.9997022747993469,
        -0.9998093247413635,
        -1.0
      ],
      "type": "VEC3"
    },
    {
      "bufferView": 1,
      "byteOffset": 1048520,
      "componentType": 5126,
      "count": 65533,
      "max": [
        0.9993900060653687,
        0.9894300103187561
      ],
      "min": [
        0.003710000077262521,
        0.061469998210668564
      ],
      "type": "VEC2"
    },
    {
      "bufferView": 0,
      "byteOffset": 1499268,
      "componentType": 5125,
      "count": 69621,
      "type": "SCALAR"
    },
    {
      "bufferView": 2,
      "byteOffset": 4718352,
      "componentType": 5126,
      "count": 14143,
      "max": [
        56.959659576416016,
        56.13523864746094,
        -64.99446105957031
      ],
      "min": [
        -56.934669494628906,
        -56.13523864746094,
        -70.0521469116211
      ],
      "type": "VEC3"
    },
    {
      "bufferView": 2,
      "byteOffset": 4888068,
      "componentType": 5126,
      "count": 14143,
      "max": [
        0.9998813271522522,
        0.9996890425682068,
        0.9999858736991882
      ],
      "min": [
        -0.9993672370910645,
        -0.9998093247413635,
        -0.9992047548294067
      ],
      "type": "VEC3"
    },
    {
      "bufferView": 1,
      "byteOffset": 1572784,
      "componentType": 5126,
      "count": 14143,
      "max": [
        0.9969199895858765,
        0.99617999792099
      ],
      "min": [
        0.0032999999821186066,
        0.01217000000178814
      ],
      "type": "VEC2"
    },
    {
      "bufferView": 0,
      "byteOffset": 1777752,
      "componentType": 5125,
      "count": 29946,
      "type": "SCALAR"
    }
  ],
  "asset": {
    "extras": {
      "author": "Qlone (https://sketchfab.com/Qlone)",
      "license": "CC-BY-ND-4.0 (http://creativecommons.org/licenses/by-nd/4.0/)",
      "source": "https://sketchfab.com/3d-models/dried-fruit-and-almonds-8e3aee3d55314761b46523da13b9601f",
      "title": "Dried fruit and almonds"
    },
    "generator": "Sketchfab-12.66.0",
    "version": "2.0"
  },
  "bufferViews": [
    {
      "buffer": 0,
      "byteLength": 1897536,
      "name": "floatBufferViews",
      "target": 34963
    },
    {
      "buffer": 0,
      "byteLength": 1685928,
      "byteOffset": 1897536,
      "byteStride": 8,
      "name": "floatBufferViews",
      "target": 34962
    },
    {
      "buffer": 0,
      "byteLength": 5057784,
      "byteOffset": 3583464,
      "byteStride": 12,
      "name": "floatBufferViews",
      "target": 34962
    }
  ],
  "buffers": [
    {
      "byteLength": 8641248,
      "uri": "scene.bin"
    }
  ],
  "extensionsUsed": [
    "KHR_materials_unlit"
  ],
  "images": [
    {
      "uri": "textures/material0_baseColor.jpeg"
    }
  ],
  "materials": [
    {
      "doubleSided": true,
      "emissiveTexture": {
        "index": 0
      },
      "extensions": {
        "KHR_materials_unlit": {}
      },
      "name": "material0",
      "pbrMetallicRoughness": {
        "baseColorTexture": {
          "index": 0
        },
        "metallicFactor": 0.0
      }
    }
  ],
  "meshes": [
    {
      "name": "Object_0",
      "primitives": [
        {
          "attributes": {
            "NORMAL": 1,
            "POSITION": 0,
            "TEXCOORD_0": 2
          },
          "indices": 3,
          "material": 0,
          "mode": 4
        }
      ]
    },
    {
      "name": "Object_1",
      "primitives": [
        {
          "attributes": {
            "NORMAL": 5,
            "POSITION": 4,
            "TEXCOORD_0": 6
          },
          "indices": 7,
          "material": 0,
          "mode": 4
        }
      ]
    },
    {
      "name": "Object_2",
      "primitives": [
        {
          "attributes": {
            "NORMAL": 9,
            "POSITION": 8,
            "TEXCOORD_0": 10
          },
          "indices": 11,
          "material": 0,
          "mode": 4
        }
      ]
    },
    {
      "name": "Object_3",
      "primitives": [
        {
          "attributes": {
            "NORMAL": 13,
            "POSITION": 12,
            "TEXCOORD_0": 14
          },
          "indices": 15,
          "material": 0,
          "mode": 4
        }
      ]
    }
  ],
  "nodes": [
    {
      "children": [
        1
      ],
      "matrix": [
        1.0,
        0.0,
        0.0,
        0.0,
        0.0,
        2.220446049250313e-16,
        -1.0,
        0.0,
        0.0,
        1.0,
        2.220446049250313e-16,
        0.0,
        0.0,
        0.0,
        0.0,
        1.0
      ],
      "name": "Sketchfab_model"
    },
    {
      "children": [
        2,
        3,
        4,
        5
      ],
      "name": "model_Dried fruit and almonds_20210128_154134546.obj.cleaner.materialmerger.gles"
    },
    {
      "mesh": 0,
      "name": "Object_2"
    },
    {
      "mesh": 1,
      "name": "Object_3"
    },
    {
      "mesh": 2,
      "name": "Object_4"
    },
    {
      "mesh": 3,
      "name": "Object_5"
    }
  ],
  "samplers": [
    {
      "magFilter": 9729,
      "minFilter": 9987,
      "wrapS": 10497,
      "wrapT": 10497
    }
  ],
  "scene": 0,
  "scenes": [
    {
      "name": "Sketchfab_Scene",
      "nodes": [
        0
      ]
    }
  ],
  "textures": [
    {
      "sampler": 0,
      "source": 0
    }
  ]
}
